<svg width="420" height="200" viewBox="0 0 420 200" fill="none" xmlns="http://www.w3.org/2000/svg">
<rect width="420" height="200" rx="10" fill="white"/>
<rect x="0.5" y="0.5" width="419" height="199" rx="9.5" stroke="#DDDDDD" stroke-opacity="0.933333"/>
<path d="M40.288 87H35.104L49.12 34.904H54.24L40.288 87ZM67.488 87H61.856L57.312 65.88H52.64L46.944 87H41.824L48.736 61.272H61.6L67.488 87ZM55.52 55.128H59.744L73.568 34.904H79.264L61.92 59.736H49.184L55.84 34.904H60.96L55.52 55.128ZM68.192 61.208L74.72 87H69.088L63.136 60.824L81.056 34.904H87.008L68.192 61.208ZM124.476 39.448H97.2115L84.4755 87H79.2915L93.3075 34.904H129.02L124.476 39.448ZM114.556 66.072H96.7635L91.1315 87H86.0115L92.8595 61.528H115.772L114.556 66.072ZM118.396 45.528H102.268L99.6435 55.448H117.436L116.156 59.992H93.3075L98.4275 40.984H122.94L118.396 45.528Z" fill="#111111"/>
<path d="M48.456 123.626H40.788L37.206 137H35.748L39.69 122.348H49.734L48.456 123.626ZM45.666 131.114H40.662L39.078 137H37.638L39.564 129.836H46.008L45.666 131.114ZM46.746 125.336H42.21L41.472 128.126H46.476L46.116 129.404H39.69L41.13 124.058H48.024L46.746 125.336ZM48.6862 137H47.2102L51.1522 122.348H52.6282L48.6862 137ZM50.5942 137H49.1182L53.0602 122.348H54.5362L50.5942 137ZM57.3962 137H55.9022L59.0162 125.372H55.5062L55.8662 124.094H60.8882L57.3962 137ZM66.8282 123.662H55.9742L56.3342 122.348H68.1242L66.8282 123.662ZM65.1182 125.372H62.4902L59.3762 137H57.8462L61.3202 124.094H66.4142L65.1182 125.372ZM68.3284 124.544C68.6884 123.176 69.7144 122.348 71.1184 122.348H79.4884L75.5464 137H74.0884L77.6884 123.626H71.2624C70.5244 123.626 69.9124 124.094 69.7144 124.832L66.4384 137H64.9804L68.3284 124.544ZM70.1104 124.94C70.2724 124.346 70.7044 124.058 71.2984 124.058H77.1304L73.6564 137H72.2164L75.3484 125.336H71.4424L68.3104 137H66.8704L70.1104 124.94ZM90.7464 123.626H83.1864L79.9284 135.722H87.6144L87.2724 137H78.1464L82.0884 122.348H92.0244L90.7464 123.626ZM87.8844 130.79H83.1324L82.2684 134.03H88.0824L87.7404 135.29H80.5044L82.0164 129.602H88.2084L87.8844 130.79ZM89.0364 125.336H84.5904L83.8884 127.982H88.6584L88.3164 129.17H82.1424L83.5104 124.058H90.3144L89.0364 125.336ZM97.6383 134.408C97.4763 135.002 97.0443 135.29 96.4503 135.29H89.7723L90.1143 134.03H96.3063L97.0983 131.042H90.9423L92.7063 124.526C93.0663 123.158 94.0923 122.348 95.4963 122.348H103.38L102.102 123.626H95.5863C94.8483 123.626 94.2723 124.094 94.0743 124.832L92.7243 129.818H98.8623L97.6383 134.408ZM96.4863 135.722C97.2243 135.722 97.8723 135.254 98.0703 134.516L99.4383 129.386H93.2823L94.4703 124.94C94.6323 124.346 95.0643 124.058 95.6583 124.058H101.652L100.392 125.318H95.8203L95.0463 128.162H101.202L99.4203 134.822C99.0603 136.19 98.0343 137 96.6123 137H89.3043L89.6463 135.722H96.4863ZM109.416 134.408C109.254 135.002 108.822 135.29 108.228 135.29H101.55L101.892 134.03H108.084L108.876 131.042H102.72L104.484 124.526C104.844 123.158 105.87 122.348 107.274 122.348H115.158L113.88 123.626H107.364C106.626 123.626 106.05 124.094 105.852 124.832L104.502 129.818H110.64L109.416 134.408ZM108.264 135.722C109.002 135.722 109.65 135.254 109.848 134.516L111.216 129.386H105.06L106.248 124.94C106.41 124.346 106.842 124.058 107.436 124.058H113.43L112.17 125.318H107.598L106.824 128.162H112.98L111.198 134.822C110.838 136.19 109.812 137 108.39 137H101.082L101.424 135.722H108.264ZM40.806 149.94C40.968 149.346 41.4 149.058 41.994 149.058H46.152L42.66 162H41.31L44.442 150.336H42.084L38.952 162H37.566L40.806 149.94ZM48.204 162H46.818L49.95 150.336H47.61L44.478 162H43.11L46.584 149.058H51.678L48.204 162ZM39.096 149.544C39.456 148.176 40.482 147.348 41.886 147.348H53.964L50.022 162H48.636L52.236 148.626H41.958C41.22 148.626 40.608 149.094 40.41 149.832L37.116 162H35.748L39.096 149.544ZM65.2054 148.626H57.6454L54.3874 160.722H62.0734L61.7314 162H52.6054L56.5474 147.348H66.4834L65.2054 148.626ZM62.3434 155.79H57.5914L56.7274 159.03H62.5414L62.1994 160.29H54.9634L56.4754 154.602H62.6674L62.3434 155.79ZM63.4954 150.336H59.0494L58.3474 152.982H63.1174L62.7754 154.17H56.6014L57.9694 149.058H64.7734L63.4954 150.336ZM69.0013 149.94C69.1633 149.346 69.5953 149.058 70.1893 149.058H74.3473L70.8553 162H69.5053L72.6373 150.336H70.2793L67.1473 162H65.7613L69.0013 149.94ZM76.3993 162H75.0133L78.1453 150.336H75.8053L72.6733 162H71.3053L74.7793 149.058H79.8733L76.3993 162ZM67.2913 149.544C67.6513 148.176 68.6773 147.348 70.0813 147.348H82.1593L78.2173 162H76.8313L80.4313 148.626H70.1533C69.4153 148.626 68.8033 149.094 68.6053 149.832L65.3113 162H63.9433L67.2913 149.544ZM88.5947 159.066L89.4227 155.97H85.6967L84.8687 159.066H88.5947ZM87.2267 150.282L86.4347 153.234H89.9267L90.7187 150.282H87.2267ZM88.9367 154.818C90.4847 154.818 90.9887 155.448 90.7007 156.492L89.9267 159.408C89.7647 160.002 89.3327 160.29 88.7387 160.29H83.1227L84.5807 154.818H88.9367ZM91.5287 152.532C91.2587 153.594 90.1967 154.386 88.9547 154.386H84.7067L85.8047 150.282H82.7267L83.9507 149.04H91.2767C92.0327 149.04 92.3567 149.49 92.1587 150.228L91.5287 152.532ZM85.2827 150.624L82.5647 160.722H88.7747C89.5127 160.722 90.1247 160.254 90.3227 159.516L91.1327 156.492C91.3847 155.574 91.0247 154.854 90.1067 154.566C90.9887 154.188 91.6547 153.684 91.9607 152.532L92.5907 150.228C92.8427 149.274 92.3747 148.608 91.4027 148.608H84.3827L85.6427 147.348H91.5827C93.5267 147.348 94.4267 148.644 93.9227 150.534L93.3287 152.748C93.0947 153.648 92.6447 154.224 91.9967 154.404C92.7167 154.746 92.8247 155.484 92.5547 156.492L91.6727 159.822C91.2947 161.19 90.2867 162 88.8647 162H80.8007L83.4107 152.28L85.2827 150.624ZM106.057 148.626H98.497L95.239 160.722H102.925L102.583 162H93.457L97.399 147.348H107.335L106.057 148.626ZM103.195 155.79H98.443L97.579 159.03H103.393L103.051 160.29H95.815L97.327 154.602H103.519L103.195 155.79ZM104.347 150.336H99.901L99.199 152.982H103.969L103.627 154.17H97.453L98.821 149.058H105.625L104.347 150.336ZM114.749 150.282H111.275L110.267 154.026H113.741L114.749 150.282ZM109.331 150.516L106.253 162H104.795L107.423 152.208L109.331 150.516ZM108.377 155.7H113.039L113.993 162H112.463L111.761 156.96H109.475L108.125 162H106.685L108.377 155.7ZM115.361 149.04C116.117 149.04 116.423 149.454 116.225 150.192L115.145 154.224C114.947 154.944 114.407 155.268 113.615 155.268H108.503L109.835 150.282H106.721L107.945 149.04H115.361ZM115.703 147.348C117.647 147.348 118.547 148.644 118.043 150.534L117.035 154.278C116.693 155.538 116.099 156.204 115.091 156.546L115.991 162H114.461L113.507 155.7H113.705C114.659 155.7 115.325 155.196 115.541 154.35L116.657 150.192C116.909 149.238 116.459 148.608 115.487 148.608H108.377L109.637 147.348H115.703ZM125.5 159.408C125.338 160.002 124.906 160.29 124.312 160.29H117.634L117.976 159.03H124.168L124.96 156.042H118.804L120.568 149.526C120.928 148.158 121.954 147.348 123.358 147.348H131.242L129.964 148.626H123.448C122.71 148.626 122.134 149.094 121.936 149.832L120.586 154.818H126.724L125.5 159.408ZM124.348 160.722C125.086 160.722 125.734 160.254 125.932 159.516L127.3 154.386H121.144L122.332 149.94C122.494 149.346 122.926 149.058 123.52 149.058H129.514L128.254 150.318H123.682L122.908 153.162H129.064L127.282 159.822C126.922 161.19 125.896 162 124.474 162H117.166L117.508 160.722H124.348ZM130.581 162H129.123L133.065 147.348H134.523L130.581 162ZM137.853 162H136.413L138.015 155.988H134.055L132.453 162H131.013L132.957 154.728H139.797L137.853 162ZM134.865 153.036H138.825L140.355 147.348H141.795L139.923 154.296H133.083L134.955 147.348H136.395L134.865 153.036ZM139.743 162H138.285L142.227 147.348H143.685L139.743 162ZM143.872 162H142.396L146.338 147.348H147.814L143.872 162ZM145.78 162H144.304L148.246 147.348H149.722L145.78 162ZM158.342 150.336H154.886L153.68 154.854H157.136L158.342 150.336ZM152.96 150.57L149.882 162H148.424L151.052 152.244L152.96 150.57ZM153.446 150.336H150.512L151.772 149.058H158.954C159.71 149.058 160.016 149.472 159.818 150.21L158.468 155.25C158.306 155.844 157.874 156.132 157.28 156.132H151.898L153.446 150.336ZM160.25 155.682C159.872 157.104 158.864 157.842 157.46 157.842H152.87L151.754 162H150.332L151.79 156.564H157.316C158.054 156.564 158.666 156.096 158.864 155.358L160.25 150.21C160.502 149.256 160.052 148.626 159.08 148.626H152.204L153.464 147.348H159.278C161.222 147.348 162.122 148.644 161.618 150.534L160.25 155.682Z" fill="#111111"/>
</svg>
