<svg width="189" height="105" viewBox="0 0 189 105" fill="none" xmlns="http://www.w3.org/2000/svg">
<path d="M10.576 105H0.208L28.24 0.807999H38.48L10.576 105ZM64.976 105H53.712L44.624 62.76H35.28L23.888 105H13.648L27.472 53.544H53.2L64.976 105ZM41.04 41.256H49.488L77.136 0.807999H88.528L53.84 50.472H28.368L41.68 0.807999H51.92L41.04 41.256ZM66.384 53.416L79.44 105H68.176L56.272 52.648L92.112 0.807999H104.016L66.384 53.416ZM178.951 9.896H124.423L98.951 105H88.583L116.615 0.807999H188.039L178.951 9.896ZM159.111 63.144H123.527L112.263 105H102.023L115.719 54.056H161.543L159.111 63.144ZM166.791 22.056H134.535L129.287 41.896H164.871L162.311 50.984H116.615L126.855 12.968H175.879L166.791 22.056Z" fill="white"/>
</svg>
