<svg width="400" height="400" viewBox="0 0 400 400" fill="none" xmlns="http://www.w3.org/2000/svg">
<path d="M299.833 26.6002C283.021 24.8172 266.124 23.9493 249.217 24.0002C193.167 24.0002 158.333 59.7002 158.333 117.167V156.183H111.25C109.04 156.183 106.92 157.061 105.358 158.624C103.795 160.187 102.917 162.307 102.917 164.517V228.683C102.917 230.894 103.795 233.013 105.358 234.576C106.92 236.139 109.04 237.017 111.25 237.017H158.333V365.683C158.333 367.894 159.211 370.013 160.774 371.576C162.337 373.139 164.457 374.017 166.667 374.017H232.967C235.177 374.017 237.296 373.139 238.859 371.576C240.422 370.013 241.3 367.894 241.3 365.683V237.017H288.233C290.257 237.018 292.211 236.283 293.732 234.949C295.253 233.615 296.237 231.773 296.5 229.767L304.783 165.6C304.938 164.424 304.839 163.229 304.494 162.094C304.149 160.959 303.566 159.91 302.783 159.019C302.001 158.128 301.037 157.414 299.956 156.925C298.876 156.436 297.703 156.183 296.517 156.183H241.3V123.533C241.3 107.367 244.55 100.617 264.767 100.617H298.75C300.96 100.617 303.08 99.7389 304.643 98.176C306.205 96.6132 307.083 94.4936 307.083 92.2835V34.8668C307.084 32.8436 306.349 30.8892 305.015 29.3681C303.681 27.847 301.839 26.8632 299.833 26.6002ZM290.417 83.9335L264.75 83.9502C228.8 83.9502 224.633 106.55 224.633 123.533V164.533C224.633 166.741 225.509 168.858 227.068 170.42C228.627 171.982 230.743 172.862 232.95 172.867H287.05L280.9 220.367H232.967C230.757 220.367 228.637 221.245 227.074 222.808C225.511 224.37 224.633 226.49 224.633 228.7V357.333H175V228.7C175 226.49 174.122 224.37 172.559 222.808C170.997 221.245 168.877 220.367 166.667 220.367H119.6V172.867H166.667C168.877 172.867 170.997 171.989 172.559 170.426C174.122 168.863 175 166.744 175 164.533V117.167C175 69.2668 202.75 40.6668 249.217 40.6668C266.033 40.6668 281.217 41.5835 290.417 42.3835V83.9335Z" fill="white"/>
</svg>
