<svg width="48" height="46" viewBox="0 0 48 46" fill="none" xmlns="http://www.w3.org/2000/svg">
<path d="M32.7266 8.17969L27.2578 2.71094C27.148 2.60102 26.9991 2.5392 26.8438 2.53906H17.4688C17.1061 2.53906 16.7584 2.68311 16.502 2.9395C16.2456 3.1959 16.1016 3.54365 16.1016 3.90625V21.0938C16.1016 21.4564 16.2456 21.8041 16.502 22.0605C16.7584 22.3169 17.1061 22.4609 17.4688 22.4609H31.5312C31.8939 22.4609 32.2416 22.3169 32.498 22.0605C32.7544 21.8041 32.8984 21.4564 32.8984 21.0938V8.59375C32.8983 8.4384 32.8365 8.28947 32.7266 8.17969ZM27.4297 4.53906L30.8984 8.00781H27.4297V4.53906ZM31.7266 21.0938C31.7266 21.1455 31.706 21.1952 31.6694 21.2319C31.6327 21.2685 31.583 21.2891 31.5312 21.2891H17.4688C17.4169 21.2891 17.3673 21.2685 17.3306 21.2319C17.294 21.1952 17.2734 21.1455 17.2734 21.0938V3.90625C17.2734 3.85445 17.294 3.80477 17.3306 3.76814C17.3673 3.73151 17.4169 3.71094 17.4688 3.71094H26.2578V8.59375C26.2578 8.74915 26.3195 8.89819 26.4294 9.00807C26.5393 9.11795 26.6883 9.17969 26.8438 9.17969H31.7266V21.0938ZM27.2578 12.0859C27.3675 12.1958 27.4292 12.3447 27.4292 12.5C27.4292 12.6553 27.3675 12.8042 27.2578 12.9141L25.3291 14.8438L27.2578 16.7734C27.3154 16.8271 27.3616 16.8918 27.3936 16.9636C27.4256 17.0355 27.4428 17.1131 27.4442 17.1918C27.4456 17.2705 27.4311 17.3486 27.4017 17.4216C27.3722 17.4945 27.3283 17.5608 27.2727 17.6164C27.217 17.6721 27.1508 17.7159 27.0778 17.7454C27.0049 17.7749 26.9267 17.7893 26.848 17.788C26.7694 17.7866 26.6918 17.7694 26.6199 17.7373C26.548 17.7053 26.4833 17.6591 26.4297 17.6016L24.5 15.6729L22.5703 17.6016C22.4592 17.7051 22.3123 17.7614 22.1605 17.7587C22.0087 17.7561 21.8639 17.6946 21.7565 17.5872C21.6492 17.4799 21.5877 17.335 21.585 17.1832C21.5823 17.0314 21.6387 16.8845 21.7422 16.7734L23.6709 14.8438L21.7422 12.9141C21.6846 12.8604 21.6384 12.7957 21.6064 12.7239C21.5744 12.652 21.5572 12.5744 21.5558 12.4957C21.5544 12.417 21.5689 12.3389 21.5983 12.2659C21.6278 12.193 21.6717 12.1267 21.7273 12.0711C21.783 12.0154 21.8492 11.9716 21.9222 11.9421C21.9951 11.9126 22.0733 11.8981 22.152 11.8995C22.2306 11.9009 22.3082 11.9181 22.3801 11.9502C22.452 11.9822 22.5167 12.0284 22.5703 12.0859L24.5 14.0146L26.4297 12.0859C26.5396 11.9762 26.6885 11.9146 26.8438 11.9146C26.999 11.9146 27.1479 11.9762 27.2578 12.0859Z" fill="#111111"/>
<path d="M0.732 34.252H6.768V35.068H0.732V34.252ZM0.576 41.26L0.456 40.408C2.412 40.408 5.04 40.384 7.272 40.108L7.332 40.852C5.064 41.224 2.484 41.26 0.576 41.26ZM1.896 34.864H2.868V40.636H1.896V34.864ZM4.632 34.864H5.604V40.636H4.632V34.864ZM7.932 33.088H8.94V43.936H7.932V33.088ZM8.7 37.42H10.716V38.26H8.7V37.42ZM14.6751 33.484C16.2951 33.484 17.4831 34.468 17.4831 35.896C17.4831 37.312 16.2951 38.296 14.6751 38.296C13.0671 38.296 11.8791 37.312 11.8791 35.896C11.8791 34.468 13.0671 33.484 14.6751 33.484ZM14.6751 34.3C13.6311 34.3 12.8391 34.96 12.8391 35.896C12.8391 36.832 13.6311 37.48 14.6751 37.48C15.7311 37.48 16.5111 36.832 16.5111 35.896C16.5111 34.96 15.7311 34.3 14.6751 34.3ZM19.5231 33.088H20.5311V38.644H19.5231V33.088ZM13.5111 39.172H20.5311V41.812H14.5071V43.444H13.5351V41.068H19.5471V39.976H13.5111V39.172ZM13.5351 43H20.8911V43.792H13.5351V43ZM28.4593 33.64H29.2753V34.756C29.2753 36.808 28.0993 38.5 26.2753 39.196L25.7593 38.392C27.3913 37.804 28.4593 36.376 28.4593 34.756V33.64ZM28.6393 33.64H29.4433V34.828C29.4433 36.292 30.5233 37.648 32.0833 38.188L31.5793 38.98C29.8153 38.332 28.6393 36.712 28.6393 34.828V33.64ZM33.2113 33.088H34.2073V39.652H33.2113V33.088ZM33.9313 35.944H35.8153V36.784H33.9313V35.944ZM27.1633 40.192H34.2073V43.936H33.2113V41.02H27.1633V40.192ZM45.0784 33.088H46.0384V43.936H45.0784V33.088ZM41.1304 36.976H43.2064V37.804H41.1304V36.976ZM42.9064 33.34H43.8424V43.384H42.9064V33.34ZM39.0424 34.768H39.8104V36.148C39.8104 38.524 38.8984 40.768 37.3024 41.776L36.6904 41.032C38.2024 40.12 39.0424 38.14 39.0424 36.148V34.768ZM39.2464 34.768H40.0144V36.148C40.0144 38.032 40.8304 39.916 42.3184 40.78L41.7064 41.512C40.1224 40.552 39.2464 38.416 39.2464 36.148V34.768ZM36.9904 34.348H41.9464V35.176H36.9904V34.348Z" fill="#111111"/>
</svg>
