<svg width="16" height="17" viewBox="0 0 16 17" fill="none" xmlns="http://www.w3.org/2000/svg">
<mask id="mask0_248_2" style="mask-type:luminance" maskUnits="userSpaceOnUse" x="0" y="0" width="16" height="17">
<rect y="0.119141" width="16" height="16" fill="white"/>
</mask>
<g mask="url(#mask0_248_2)">
<path fill-rule="evenodd" clip-rule="evenodd" d="M16 8.11914C16 8.11914 13 2.61914 8 2.61914C3 2.61914 0 8.11914 0 8.11914C0 8.11914 3 13.6191 8 13.6191C13 13.6191 16 8.11914 16 8.11914ZM1.173 8.11914C1.65652 8.85402 2.21265 9.53845 2.83301 10.1621C4.12 11.4511 5.88 12.6191 8 12.6191C10.12 12.6191 11.879 11.4511 13.168 10.1621C13.7884 9.53845 14.3445 8.85402 14.828 8.11914C14.3445 7.38426 13.7884 6.69982 13.168 6.07614C11.879 4.78714 10.119 3.61914 8 3.61914C5.88 3.61914 4.121 4.78714 2.832 6.07614C2.21164 6.69983 1.65551 7.38427 1.172 8.11915L1.173 8.11914Z" fill="#BEBEBE"/>
<path fill-rule="evenodd" clip-rule="evenodd" d="M8 5.61914C6.61929 5.61914 5.5 6.73843 5.5 8.11913C5.5 9.49984 6.61928 10.6191 7.99999 10.6191C9.3807 10.6191 10.5 9.49986 10.5 8.11915C10.5 6.73844 9.38072 5.61915 8.00001 5.61914H8ZM4.5 8.11914C4.5 6.86871 5.1671 5.71327 6.25 5.08805C7.3329 4.46284 8.66709 4.46284 9.75 5.08805C10.8329 5.71327 11.5 6.86871 11.5 8.11914C11.5 9.36957 10.8329 10.525 9.75 11.1502C8.6671 11.7754 7.3329 11.7754 6.25 11.1502C5.1671 10.525 4.5 9.36957 4.5 8.11914V8.11914Z" fill="#BEBEBE"/>
</g>
</svg>
