<svg width="23" height="22" viewBox="0 0 23 22" fill="none" xmlns="http://www.w3.org/2000/svg">
<path fill-rule="evenodd" clip-rule="evenodd" d="M0.5 9.46914C0.5 4.12644 5.6216 0.119141 11.5 0.119141C17.3784 0.119141 22.5 4.12644 22.5 9.46914C22.5 14.8118 17.3784 18.8191 11.5 18.8191C10.9214 18.8191 10.3545 18.7825 9.7994 18.7091L6.6094 20.8343C6.42839 20.9549 6.21571 21.0191 5.99823 21.0188C5.78075 21.0185 5.56824 20.9538 5.38754 20.8328C5.20684 20.7118 5.06606 20.5399 4.98301 20.3389C4.89995 20.1379 4.87834 19.9168 4.9209 19.7035L5.4104 17.2604C2.5108 15.6181 0.5 12.7878 0.5 9.46914ZM9.3 4.51914C9.59174 4.51914 9.87153 4.63503 10.0778 4.84132C10.2841 5.04761 10.4 5.3274 10.4 5.61914V13.3191C10.4 13.6109 10.2841 13.8907 10.0778 14.097C9.87153 14.3032 9.59174 14.4191 9.3 14.4191C9.00826 14.4191 8.72847 14.3032 8.52218 14.097C8.31589 13.8907 8.2 13.6109 8.2 13.3191V5.61914C8.2 5.3274 8.31589 5.04761 8.52218 4.84132C8.72847 4.63503 9.00826 4.51914 9.3 4.51914ZM10.4 10.5691C10.4 10.326 10.4803 10.0829 10.642 9.88164L12.842 7.13164C13.0276 6.9143 13.2905 6.77773 13.575 6.75083C13.8595 6.72393 14.1433 6.80882 14.3664 6.98753C14.5894 7.16623 14.7341 7.42472 14.7699 7.70827C14.8056 7.99181 14.7297 8.27814 14.558 8.50664L12.908 10.5691L14.558 12.6316C14.6537 12.7437 14.7259 12.8738 14.7703 13.0143C14.8147 13.1548 14.8305 13.3028 14.8166 13.4495C14.8027 13.5962 14.7595 13.7386 14.6896 13.8683C14.6196 13.9979 14.5243 14.1122 14.4093 14.2044C14.2943 14.2965 14.162 14.3646 14.0202 14.4046C13.8784 14.4446 13.73 14.4557 13.5838 14.4373C13.4376 14.4189 13.2966 14.3712 13.1692 14.2973C13.0418 14.2233 12.9305 14.1244 12.842 14.0066L10.642 11.2566C10.4855 11.0616 10.4002 10.8192 10.4 10.5691Z" fill="#3A1D1D"/>
</svg>
