<svg width="400" height="400" viewBox="0 0 400 400" fill="none" xmlns="http://www.w3.org/2000/svg">
<path d="M350 350L277.617 277.617M277.617 277.617C289.998 265.235 299.82 250.536 306.52 234.359C313.221 218.182 316.67 200.843 316.67 183.333C316.67 165.823 313.221 148.485 306.52 132.308C299.82 116.13 289.998 101.431 277.617 89.05C265.235 76.6686 250.536 66.847 234.359 60.1462C218.182 53.4454 200.843 49.9966 183.333 49.9966C165.823 49.9966 148.485 53.4454 132.308 60.1462C116.13 66.847 101.431 76.6686 89.05 89.05C64.0445 114.056 49.9966 147.97 49.9966 183.333C49.9966 218.696 64.0445 252.611 89.05 277.617C114.056 302.622 147.97 316.67 183.333 316.67C218.696 316.67 252.611 302.622 277.617 277.617Z" stroke="#999999" stroke-width="25" stroke-linecap="round" stroke-linejoin="round"/>
</svg>
