<svg width="200" height="200" viewBox="0 0 200 200" fill="none" xmlns="http://www.w3.org/2000/svg">
<path d="M183.333 0H16.6667C12.2464 0 8.00716 1.75595 4.88155 4.88155C1.75595 8.00716 0 12.2464 0 16.6667V183.333C0 187.754 1.75595 191.993 4.88155 195.118C8.00716 198.244 12.2464 200 16.6667 200H183.333C187.754 200 191.993 198.244 195.118 195.118C198.244 191.993 200 187.754 200 183.333V16.6667C200 12.2464 198.244 8.00716 195.118 4.88155C191.993 1.75595 187.754 0 183.333 0ZM155.896 144.104C156.67 144.878 157.284 145.798 157.703 146.809C158.122 147.821 158.338 148.905 158.338 150C158.338 151.095 158.122 152.179 157.703 153.191C157.284 154.202 156.67 155.122 155.896 155.896C155.122 156.67 154.202 157.284 153.191 157.703C152.179 158.122 151.095 158.338 150 158.338C148.905 158.338 147.821 158.122 146.809 157.703C145.798 157.284 144.878 156.67 144.104 155.896L100 111.781L55.8958 155.896C54.3322 157.46 52.2114 158.338 50 158.338C47.7886 158.338 45.6678 157.46 44.1042 155.896C42.5405 154.332 41.662 152.211 41.662 150C41.662 147.789 42.5405 145.668 44.1042 144.104L88.2187 100L44.1042 55.8958C42.5405 54.3322 41.662 52.2114 41.662 50C41.662 47.7886 42.5405 45.6678 44.1042 44.1042C45.6678 42.5405 47.7886 41.662 50 41.662C52.2114 41.662 54.3322 42.5405 55.8958 44.1042L100 88.2187L144.104 44.1042C145.668 42.5405 147.789 41.662 150 41.662C152.211 41.662 154.332 42.5405 155.896 44.1042C157.46 45.6678 158.338 47.7886 158.338 50C158.338 52.2114 157.46 54.3322 155.896 55.8958L111.781 100L155.896 144.104Z" fill="white"/>
</svg>
