<svg width="400" height="400" viewBox="0 0 400 400" fill="none" xmlns="http://www.w3.org/2000/svg">
<path fill-rule="evenodd" clip-rule="evenodd" d="M96.857 22.4856C77.1299 22.4856 58.2103 30.3202 44.2584 44.2667C30.3065 58.2133 22.4646 77.1299 22.457 96.857V295.257C22.457 314.989 30.2956 333.913 44.2483 347.866C58.201 361.818 77.1249 369.657 96.857 369.657H295.257C314.984 369.649 333.901 361.808 347.847 347.856C361.794 333.904 369.628 314.984 369.628 295.257V96.857C369.621 77.1348 361.783 58.2226 347.837 44.2768C333.891 30.3311 314.979 22.4932 295.257 22.4856H96.857ZM316.657 96.9713C316.657 102.655 314.399 108.105 310.381 112.124C306.362 116.142 300.912 118.4 295.228 118.4C289.545 118.4 284.095 116.142 280.076 112.124C276.058 108.105 273.8 102.655 273.8 96.9713C273.8 91.2881 276.058 85.8377 280.076 81.819C284.095 77.8004 289.545 75.5427 295.228 75.5427C300.912 75.5427 306.362 77.8004 310.381 81.819C314.399 85.8377 316.657 91.2881 316.657 96.9713ZM196.086 136.628C180.324 136.628 165.208 142.89 154.063 154.035C142.918 165.18 136.657 180.296 136.657 196.057C136.657 211.818 142.918 226.934 154.063 238.079C165.208 249.224 180.324 255.486 196.086 255.486C211.847 255.486 226.963 249.224 238.108 238.079C249.253 226.934 255.514 211.818 255.514 196.057C255.514 180.296 249.253 165.18 238.108 154.035C226.963 142.89 211.847 136.628 196.086 136.628ZM108.057 196.057C108.057 172.718 117.328 150.335 133.832 133.832C150.335 117.328 172.718 108.057 196.057 108.057C219.396 108.057 241.779 117.328 258.282 133.832C274.786 150.335 284.057 172.718 284.057 196.057C284.057 219.396 274.786 241.779 258.282 258.282C241.779 274.786 219.396 284.057 196.057 284.057C172.718 284.057 150.335 274.786 133.832 258.282C117.328 241.779 108.057 219.396 108.057 196.057Z" fill="white"/>
</svg>
