<svg width="400" height="400" viewBox="0 0 400 400" fill="none" xmlns="http://www.w3.org/2000/svg">
<path d="M295.229 104.114C293.334 104.114 291.517 103.362 290.178 102.022C288.838 100.683 288.086 98.8659 288.086 96.9715C288.086 95.0771 288.838 93.2603 290.178 91.9207C291.517 90.5812 293.334 89.8286 295.229 89.8286M295.229 104.114C297.123 104.114 298.94 103.362 300.279 102.022C301.619 100.683 302.371 98.8659 302.371 96.9715C302.371 95.0771 301.619 93.2603 300.279 91.9207C298.94 90.5812 297.123 89.8286 295.229 89.8286" stroke="white" stroke-width="28.5714" stroke-linecap="round" stroke-linejoin="round"/>
<path d="M24.5142 98.0287C24.5142 78.5315 32.2594 59.8328 46.046 46.0462C59.8326 32.2596 78.5312 24.5144 98.0284 24.5144H294.086C303.74 24.5144 313.299 26.4159 322.218 30.1103C331.137 33.8048 339.242 39.2198 346.068 46.0462C352.894 52.8727 358.309 60.9768 362.004 69.896C365.698 78.8152 367.6 88.3747 367.6 98.0287V294.086C367.6 313.583 359.855 332.282 346.068 346.068C332.281 359.855 313.583 367.6 294.086 367.6H97.9999C78.5027 367.6 59.804 359.855 46.0174 346.068C32.2308 332.282 24.4856 313.583 24.4856 294.086V98.0001L24.5142 98.0287Z" stroke="white" stroke-width="28.5714" stroke-linecap="round" stroke-linejoin="round"/>
<path d="M123.2 196.057C123.2 205.625 125.084 215.099 128.746 223.939C132.407 232.778 137.774 240.81 144.539 247.575C151.305 254.341 159.336 259.707 168.176 263.369C177.015 267.03 186.489 268.914 196.057 268.914C205.625 268.914 215.099 267.03 223.938 263.369C232.778 259.707 240.809 254.341 247.575 247.575C254.34 240.81 259.707 232.778 263.368 223.939C267.03 215.099 268.914 205.625 268.914 196.057C268.914 176.734 261.238 158.203 247.575 144.54C233.912 130.876 215.38 123.2 196.057 123.2C176.734 123.2 158.203 130.876 144.539 144.54C130.876 158.203 123.2 176.734 123.2 196.057Z" stroke="white" stroke-width="28.5714" stroke-linecap="round" stroke-linejoin="round"/>
</svg>
