<svg width="25" height="25" viewBox="0 0 25 25" fill="none" xmlns="http://www.w3.org/2000/svg">
<path d="M18.6939 11.8847L7.68799 3.28852C7.65923 3.26588 7.62467 3.25181 7.58827 3.24792C7.55188 3.24404 7.51513 3.2505 7.48224 3.26656C7.44935 3.28263 7.42166 3.30764 7.40234 3.33873C7.38303 3.36982 7.37288 3.40573 7.37305 3.44233V5.32954C7.37305 5.44917 7.4292 5.56391 7.52197 5.63715L16.311 12.4999L7.52197 19.3627C7.42676 19.436 7.37305 19.5507 7.37305 19.6704V21.5576C7.37305 21.7211 7.56104 21.8115 7.68799 21.7114L18.6939 13.1152C18.7874 13.0422 18.8631 12.9489 18.9151 12.8423C18.9672 12.7357 18.9942 12.6186 18.9942 12.4999C18.9942 12.3813 18.9672 12.2642 18.9151 12.1576C18.8631 12.051 18.7874 11.9577 18.6939 11.8847Z" fill="#333333"/>
</svg>
