<svg width="25" height="25" viewBox="0 0 25 25" fill="none" xmlns="http://www.w3.org/2000/svg">
<path d="M18.3208 10.6379L7.31494 2.04169C7.28618 2.01905 7.25162 2.00498 7.21523 2.0011C7.17883 1.99721 7.14208 2.00367 7.10919 2.01974C7.0763 2.0358 7.04861 2.06081 7.0293 2.0919C7.00998 2.12299 6.99983 2.1589 7 2.1955V4.08271C7 4.20234 7.05615 4.31709 7.14893 4.39033L15.938 11.2531L7.14893 18.1159C7.05371 18.1892 7 18.3039 7 18.4235V20.3107C7 20.4743 7.18799 20.5646 7.31494 20.4645L18.3208 11.8684C18.4143 11.7954 18.49 11.7021 18.5421 11.5954C18.5941 11.4888 18.6212 11.3718 18.6212 11.2531C18.6212 11.1345 18.5941 11.0174 18.5421 10.9108C18.49 10.8042 18.4143 10.7109 18.3208 10.6379Z" fill="white"/>
</svg>
