<svg width="25" height="25" viewBox="0 0 25 25" fill="none" xmlns="http://www.w3.org/2000/svg">
<path d="M7.30029 10.6379L18.3062 2.04169C18.3349 2.01905 18.3695 2.00498 18.4059 2.0011C18.4423 1.99721 18.479 2.00367 18.5119 2.01974C18.5448 2.0358 18.5725 2.06081 18.5918 2.0919C18.6111 2.12299 18.6213 2.1589 18.6211 2.1955V4.08271C18.6211 4.20234 18.5649 4.31709 18.4722 4.39033L9.6831 11.2531L18.4722 18.1159C18.5674 18.1892 18.6211 18.3039 18.6211 18.4235V20.3107C18.6211 20.4743 18.4331 20.5646 18.3062 20.4645L7.30029 11.8684C7.20675 11.7954 7.13108 11.7021 7.07903 11.5954C7.02698 11.4888 6.99993 11.3718 6.99993 11.2531C6.99993 11.1345 7.02698 11.0174 7.07903 10.9108C7.13108 10.8042 7.20675 10.7109 7.30029 10.6379Z" fill="white"/>
</svg>
