<svg width="25" height="25" viewBox="0 0 25 25" fill="none" xmlns="http://www.w3.org/2000/svg">
<path d="M7.67334 11.8847L18.6792 3.28852C18.708 3.26588 18.7425 3.25181 18.7789 3.24792C18.8153 3.24404 18.8521 3.2505 18.8849 3.26656C18.9178 3.28263 18.9455 3.30764 18.9648 3.33873C18.9842 3.36982 18.9943 3.40573 18.9941 3.44233V5.32954C18.9941 5.44917 18.938 5.56391 18.8452 5.63715L10.0562 12.4999L18.8452 19.3627C18.9404 19.436 18.9941 19.5507 18.9941 19.6704V21.5576C18.9941 21.7211 18.8062 21.8115 18.6792 21.7114L7.67334 13.1152C7.57979 13.0422 7.50412 12.9489 7.45207 12.8423C7.40003 12.7357 7.37297 12.6186 7.37297 12.4999C7.37297 12.3813 7.40003 12.2642 7.45207 12.1576C7.50412 12.051 7.57979 11.9577 7.67334 11.8847Z" fill="#333333"/>
</svg>
