<svg width="400" height="400" viewBox="0 0 400 400" fill="none" xmlns="http://www.w3.org/2000/svg">
<path d="M341.25 130.083C341.417 133.167 341.417 136.25 341.417 139.167C341.372 158.141 338.605 177.011 333.2 195.2C321.791 237.118 296.745 274.043 262.016 300.143C227.287 326.243 184.854 340.032 141.417 339.333C103.184 339.376 65.7547 328.368 33.6333 307.633C39.2008 308.325 44.8064 308.665 50.4166 308.65C82.0576 308.679 112.787 298.053 137.65 278.483C123.004 278.216 108.808 273.383 97.0415 264.658C85.2753 255.934 76.5266 243.753 72.0166 229.817C76.3778 230.567 80.7918 230.968 85.2166 231.017C91.529 231.049 97.814 230.185 103.883 228.45C88.8456 225.468 75.2027 217.632 65.0498 206.145C54.897 194.659 48.7958 180.157 47.6833 164.867C47.4055 163.109 47.2939 161.329 47.35 159.55V158.7C57.1231 164.112 68.0497 167.107 79.2166 167.433C69.5929 161.028 61.7052 152.34 56.258 142.143C50.8108 131.947 47.9737 120.56 48 109C48.0099 96.5538 51.261 84.3246 57.4333 73.5167C75.0856 95.2662 97.1202 113.055 122.103 125.724C147.086 138.393 174.456 145.66 202.433 147.05C198.904 131.974 200.449 116.154 206.83 102.046C213.211 87.9376 224.07 76.33 237.722 69.0244C251.374 61.7187 267.056 59.1234 282.334 61.6414C297.611 64.1593 311.631 71.6497 322.217 82.95C338.001 79.8512 353.134 74.0553 366.95 65.8167C367.541 77.7485 365.549 89.6674 361.111 100.759C356.673 111.85 349.909 121.853 341.25 130.083Z" fill="white"/>
</svg>
