<svg width="400" height="400" viewBox="0 0 400 400" fill="none" xmlns="http://www.w3.org/2000/svg">
<path d="M375 59.8167C375 58.3458 374.61 56.9012 373.871 55.6297C373.132 54.3581 372.069 53.3048 370.791 52.5769C369.513 51.849 368.065 51.4723 366.594 51.4852C365.123 51.498 363.682 51.8999 362.417 52.65C350.68 59.6201 337.943 64.7465 324.65 67.85C310.119 53.9724 290.776 46.2661 270.683 46.35C259.77 46.363 248.978 48.6419 238.991 53.0424C229.003 57.4429 220.039 63.8691 212.664 71.9142C205.29 79.9593 199.666 89.4479 196.149 99.7793C192.632 110.111 191.299 121.06 192.233 131.933C141.854 126.574 95.6289 101.536 63.6166 62.2667C62.7623 61.2234 61.6675 60.4029 60.4263 59.8758C59.185 59.3487 57.8344 59.1307 56.4904 59.2406C55.1464 59.3504 53.8491 59.7847 52.7099 60.5063C51.5706 61.2279 50.6236 62.2152 49.9499 63.3834C43.0518 75.4484 39.4158 89.1023 39.3999 103C39.3564 118.259 43.7705 133.198 52.0999 145.983L51.0999 145.433C49.7959 144.786 48.3449 144.491 46.8916 144.579C45.4383 144.667 44.0333 145.134 42.8166 145.933C41.543 146.756 40.4979 147.887 39.7782 149.221C39.0585 150.556 38.6876 152.051 38.6999 153.567C38.6333 155.544 38.7555 157.506 39.0666 159.45C39.8626 170.452 42.9732 181.161 48.1947 190.878C53.4162 200.594 60.631 209.098 69.3666 215.833C68.3011 216.147 67.3091 216.671 66.4489 217.373C65.5887 218.076 64.8776 218.943 64.3574 219.925C63.8372 220.906 63.5185 221.981 63.4199 223.088C63.3213 224.194 63.4448 225.309 63.7833 226.367C67.6283 238.374 74.315 249.276 83.2752 258.146C92.2353 267.017 103.204 273.593 115.25 277.317C90.6573 291.082 62.3352 296.701 34.3499 293.367C32.4746 293.132 30.5753 293.542 28.9636 294.529C27.3519 295.516 26.1235 297.022 25.4802 298.799C24.8368 300.576 24.8166 302.519 25.4228 304.309C26.0291 306.099 27.2258 307.63 28.8166 308.65C62.3066 330.216 101.3 341.679 141.133 341.667C186.319 342.163 230.402 327.715 266.529 300.571C302.656 273.426 328.801 235.105 340.9 191.567C346.55 172.617 349.433 152.933 349.467 133.15C349.467 131.15 349.45 129.083 349.417 126.95C358.085 118.136 364.833 107.622 369.237 96.0707C373.64 84.5193 375.602 72.1642 375 59.8167ZM334.6 118.717C333.234 120.337 332.537 122.417 332.65 124.533C333.55 145.602 330.937 166.673 324.917 186.883C314.157 227.151 290.2 262.644 256.88 287.685C223.561 312.725 182.804 325.864 141.133 325C115.7 325.001 90.5238 319.918 67.0833 310.05C94.6312 306.991 120.764 296.249 142.5 279.05C143.852 277.987 144.842 276.532 145.335 274.883C145.827 273.235 145.797 271.475 145.249 269.845C144.701 268.214 143.663 266.793 142.275 265.777C140.888 264.76 139.22 264.198 137.5 264.167C126.833 263.993 116.392 261.062 107.192 255.66C97.9924 250.257 90.3473 242.565 84.9999 233.333C92.0833 233.35 99.1166 232.383 105.9 230.433C107.688 229.909 109.248 228.802 110.333 227.287C111.417 225.772 111.963 223.937 111.882 222.076C111.801 220.215 111.099 218.434 109.888 217.019C108.677 215.603 107.026 214.634 105.2 214.267C93.2734 211.871 82.3184 206.011 73.7063 197.42C65.0942 188.828 59.2075 177.887 56.7833 165.967C63.8602 168.266 71.2287 169.546 78.6666 169.767C80.5009 169.912 82.3279 169.408 83.8272 168.341C85.3266 167.274 86.4026 165.714 86.8666 163.933C87.411 162.21 87.3803 160.356 86.779 158.651C86.1777 156.947 85.0386 155.484 83.5333 154.483C75.0582 148.835 68.1141 141.175 63.3212 132.189C58.5284 123.202 56.0359 113.168 56.0666 102.983C56.0666 96.1 57.1833 89.2667 59.3999 82.7667C96.3558 122.66 147.425 146.55 201.733 149.35C203.031 149.489 204.342 149.287 205.538 148.763C206.733 148.24 207.771 147.414 208.55 146.367C209.376 145.376 209.962 144.207 210.26 142.952C210.557 141.697 210.56 140.39 210.267 139.133C209.16 134.538 208.601 129.827 208.6 125.1C208.618 108.641 215.161 92.8612 226.796 81.22C238.431 69.5787 254.208 63.0265 270.667 63C279.144 62.9759 287.535 64.7097 295.309 68.0918C303.083 71.4739 310.072 76.431 315.833 82.65C316.802 83.6809 318.017 84.4483 319.364 84.8798C320.711 85.3113 322.146 85.3929 323.533 85.1167C335.358 82.7786 346.857 79.0237 357.783 73.9334C354.943 90.9218 346.826 106.585 334.583 118.7" fill="white"/>
</svg>
